Simulation
nRows=36
nColumns=15
endheader
time  TH_x TH_y TH_z SC_y  SC_z  SC_x  AC_y  AC_z  AC_x  GH_y  GH_z  GH_yy  EL_x  PS_y
2.8725  0.000000  0.000000  0.000000  -62.367086855700784  9.837720909184789  12.387101673933364  56.195835187557115  18.01367031827016  16.172127903861874  87.8160539678007  80.45354005415793  -118.677388282842  16.270422083154536  120.000000
2.92995  0.000000  0.000000  0.000000  -51.21651406283705  -3.953043129395298  22.856753296570965  66.5598683411834  4.34154475992151  -14.896966862905943  89.30428279640954  79.86496763168154  -119.83290208393137  11.737910625024128  120.000000
2.9874  0.000000  0.000000  0.000000  -43.285009413886264  -11.319676636781999  -3.1538636236846065  54.15493480667714  8.921497995238619  -25.738477324995003  89.01154890725539  81.84223052621181  -119.64638066422228  10.809204059191947  120.000000
3.0448500000000003  0.000000  0.000000  0.000000  -24.978857433446343  -14.08930964561422  -30.3369757671283  26.763933755403087  20.363826949318174  -7.515155709515253  97.25844252475837  55.13093911924929  -123.78224021492765  14.980545142633623  120.000000
3.1023  0.000000  0.000000  0.000000  -27.214363135089933  -8.87394238028896  -26.981035150338464  53.155904165043104  16.7299586455441  29.509810740491133  -140.58884620739505  30.333828598248015  116.082037608623  22.206332791264312  120.000000
3.15975  0.000000  0.000000  0.000000  -56.807271355513976  2.3889764614202003  -29.206798625512597  74.8721895529139  44.60247630504511  16.605840738018305  -140.08653258475138  30.599020817368284  115.68713471964632  13.631526272877807  120.000000
3.2172  0.000000  0.000000  0.000000  -41.63575048599804  0.05870542649073998  -26.572519534549166  33.86563302032365  28.68886904976233  9.74842505230883  -63.974416651396666  30.510906609682422  39.58845948666806  27.645496716905857  120.000000
3.2746500000000003  0.000000  0.000000  0.000000  -34.23234701241147  2.0238715286127347  -26.47379218571874  33.0011538509395  0.7004437166905739  7.713607774012362  -20.494806083288747  64.44976665694855  -6.442727289776654  32.840665161489184  120.000000
3.3321  0.000000  0.000000  0.000000  -63.17543084527823  6.421637163238515  -0.27962111748803664  43.29860766648603  21.065812125227644  -15.458428067002666  67.05786996720576  79.7953688144449  -35.024050463827  5.189113376831821  120.000000
3.38955  0.000000  0.000000  0.000000  -55.05874642917031  -0.1860689109573905  8.335855077055161  48.83627676761297  4.1857157269286756  -5.6594980392133305  75.14048814263235  94.55836981802418  -39.73449683995755  6.373732161730731  120.000000
3.447  0.000000  0.000000  0.000000  -32.784773144573535  -5.779409330867441  -20.617879847299278  34.80908838463781  4.410103954602969  -0.12386323707373906  88.12259167244714  80.31358248534434  -117.28288766527032  23.357319854096765  120.000000
3.5044500000000003  0.000000  0.000000  0.000000  -38.4981397366005  4.761616248703628  -11.633934924595144  32.03845399190308  20.453503869909145  -19.766628586411407  90.28814941811626  78.77265518385245  -118.59716254306186  8.338820864777578  120.000000
3.5619  0.000000  0.000000  0.000000  -48.090081369501156  -2.4961478560450363  -0.18492467587595962  45.00097178907351  -13.883987373015087  1.8069455307286608  0.730325696379838  52.35855863207131  45.006052153076126  21.442992834515586  120.000000
3.61935  0.000000  0.000000  0.000000  -34.893506178362976  -14.800179477380611  -5.290933835728823  38.20524953864794  13.300168260340415  -23.956340297671364  -28.009854510300634  17.471401768037985  69.16449586280362  32.707057007450715  120.000000
3.6768  0.000000  0.000000  0.000000  -44.03537870628001  0.5555964591099511  -6.470561988595622  41.17699295580317  17.997542415961092  -16.31299564644373  -175.7562843967526  15.736492104440154  -149.2479479462973  9.937249974228164  120.000000
3.7342500000000003  0.000000  0.000000  0.000000  -31.689505278557284  3.6975577478482027  -5.0185556484783005  30.604684681141904  -20.499196421654165  -6.128259000599911  -58.83583883296581  19.640326105619952  79.69347554535949  11.508208647243704  120.000000
3.7917  0.000000  0.000000  0.000000  -38.5630151115703  -5.874719514586319  -10.45918460296242  43.629242189594386  22.795899952472944  -5.417535102979274  173.23727226773212  15.605372384267344  163.27299834475875  8.547992288077204  120.000000
3.84915  0.000000  0.000000  0.000000  -67.71666307429724  -1.6262666137398396  0.2793083063408788  56.333505790848  37.47447463988663  17.373777608859672  -144.28624210309346  26.104775315897868  120.36467565523526  7.57066821469671  120.000000
3.9066  0.000000  0.000000  0.000000  -47.3519531217394  11.994472928368262  -13.178056627795176  42.47430860485445  34.83421808717536  28.47108044630265  -142.07074318163086  25.572014283760332  118.38132146616229  22.49826957382206  120.000000
3.9640500000000003  0.000000  0.000000  0.000000  -29.364143939344576  13.990494544824923  -19.80103076164401  24.329310920286147  29.822701041108758  28.261735401242905  -141.0809503143652  19.242440055915033  117.73737659821593  32.53478254795371  120.000000
4.0215  0.000000  0.000000  0.000000  -40.157019423111564  12.423551305553833  -22.664687726299434  40.84334080366399  27.038524858032236  31.928375572316465  -33.79114611296462  19.10687882921399  14.711249726328928  31.96450367585715  120.000000
4.07895  0.000000  0.000000  0.000000  -56.66498330951084  5.008528101032552  3.1511334048159023  52.278157189927754  36.45927467614888  17.634981148128453  142.84647942033828  21.002822288078402  -161.97859318190353  19.99009031339839  120.000000
4.1364  0.000000  0.000000  0.000000  -25.517561289864496  1.7281614406834642  -15.628897528755445  35.15744850552471  2.5799385990971437  -1.5360140602349983  96.41821720031622  77.00132224645428  -113.78344915521876  24.541692076609042  120.000000
4.19385  0.000000  0.000000  0.000000  -48.722825734324  16.27459084375176  2.6910663292430943  36.03021251071817  -11.105216655971594  0.6291282014878585  114.61694940268457  80.36374351243533  -94.46477464371932  15.098282027427523  120.000000
4.2513000000000005  0.000000  0.000000  0.000000  -68.52835655864325  3.7402921748836158  23.065138120152444  65.75224828973859  1.5403228440784007  0.4432669311450765  29.484254670521494  14.836597094442485  -35.39122651831388  6.117447111704482  120.000000
4.30875  0.000000  0.000000  0.000000  -31.25518193407759  2.2247130346338095  -27.084660320184078  49.5532687251342  28.28031231740202  29.830401471274165  -27.284748453694686  71.68554798667077  14.386384481746433  33.13139373223224  120.000000
4.3662  0.000000  0.000000  0.000000  -33.94426075041119  14.668543964413244  -24.06605975456534  23.859574395061383  33.35664372514942  31.195868103003953  2.549134081452462  68.29925949473598  -28.448757434646343  23.96612376649261  120.000000
4.42365  0.000000  0.000000  0.000000  -65.14476799915143  5.002174852123251  -27.35338518787961  40.64538019071042  27.875815352717712  11.541154440469404  34.71516160012233  108.5023155199108  -62.26197219644472  5.576188914429816  120.000000
4.4811  0.000000  0.000000  0.000000  -62.92072251383061  -9.730183709660452  8.19308253775286  57.50765718453488  15.657580280273647  -3.8335763863515298  22.40770600220459  70.39632669544872  -19.1754435138544  11.71897650940827  120.000000
4.53855  0.000000  0.000000  0.000000  -29.28491899427105  -3.7891913404399324  -9.876908718967423  35.80145680158043  18.385599130235242  -23.584787956193274  -19.432929352429998  69.96329129840854  21.755569955056433  11.712268806573768  120.000000
4.596  0.000000  0.000000  0.000000  -45.48550363350392  2.78583911033025  -18.940529525025404  30.547082335269288  22.421844903010204  -14.11969358648736  5.847158171213975  69.07625999873561  41.5837490287621  6.925349707237764  120.000000
4.65345  0.000000  0.000000  0.000000  -71.25806832241331  -4.919185792069535  14.38929028434357  63.41549684748252  23.506465794675297  -1.7464877017645428  4.703263486672273  68.03725952988864  36.609480023445656  15.340099820721033  120.000000
4.7109000000000005  0.000000  0.000000  0.000000  -32.69269900468579  -2.99819969308013  17.18021780190869  54.49182568308181  5.8367788065900905  -11.358685338868888  -33.08211464346145  62.711399237020586  11.662831787915112  32.240209496854455  120.000000
4.76835  0.000000  0.000000  0.000000  -20.19257116003448  -5.8335734412617155  -26.510984104053723  28.14483616295297  8.90533431239784  1.1959525819645052  22.768333058958724  66.83321390347221  10.354674905225144  12.193493277442343  120.000000
4.8258  0.000000  0.000000  0.000000  -50.54374179073021  6.73149859213167  -25.849111403266427  56.90731081981282  10.873034426041473  29.672481466058084  27.803300701171825  61.678109999037105  -5.938671773114549  6.669002280848548  120.000000
4.88325  0.000000  0.000000  0.000000  -58.88426989660918  15.211740768388783  13.333584706485748  77.13942523654339  35.42456713920859  21.7103927952329  -106.23871702979892  21.06217171668211  127.95404326244753  7.661401700416828  120.000000
